<svg xmlns="http://www.w3.org/2000/svg" width="18" height="20.438" viewBox="0 0 18 20.438"><path d="M4.95,10.121v5.285A1.268,1.268,0,0,1,3.661,16.67,1.385,1.385,0,0,1,2.25,15.406V10.121A1.384,1.384,0,0,1,3.661,8.866,1.278,1.278,0,0,1,4.95,10.121Zm.506,7.165a1.366,1.366,0,0,0,1.387,1.351h.933l.014,2.789a1.294,1.294,0,0,0,2.587,0V18.637h1.744v2.789a1.3,1.3,0,0,0,2.6,0V18.637h.947a1.364,1.364,0,0,0,1.378-1.351V9.1H5.456Zm11.625-8.63H5.4A5.122,5.122,0,0,1,8.386,4.119l-.9-1.611c-.131-.224.2-.365.314-.173L8.714,3.96a6.49,6.49,0,0,1,5.077,0l.9-1.62c.117-.2.445-.05.314.173l-.9,1.606A5.133,5.133,0,0,1,17.081,8.656Zm-8-2.533a.486.486,0,0,0-.492-.479.479.479,0,0,0,0,.958A.486.486,0,0,0,9.08,6.123Zm5.316,0a.485.485,0,1,0-.478.479A.483.483,0,0,0,14.4,6.123Zm4.444,2.743a1.269,1.269,0,0,0-1.289,1.255v5.285a1.276,1.276,0,0,0,1.289,1.264,1.381,1.381,0,0,0,1.411-1.264V10.121A1.374,1.374,0,0,0,18.839,8.866Z" transform="translate(-2.25 -2.245)" fill="#fff"/></svg>