<svg xmlns="http://www.w3.org/2000/svg" width="18" height="22.132" viewBox="0 0 18 22.132"><path d="M15.331,13.945a4.64,4.64,0,0,1,2.391-4.19,5.1,5.1,0,0,0-4.05-2.2c-1.7-.138-3.553,1.023-4.232,1.023-.717,0-2.362-.973-3.654-.973-2.668.044-5.5,2.2-5.5,6.581A12.683,12.683,0,0,0,.97,18.195c.612,1.813,2.821,6.26,5.126,6.186,1.205-.03,2.056-.884,3.625-.884,1.521,0,2.31.884,3.654.884,2.324-.035,4.323-4.076,4.906-5.895a4.928,4.928,0,0,1-2.951-4.541ZM12.624,5.832A4.762,4.762,0,0,0,13.772,2.25a5.018,5.018,0,0,0-3.247,1.724A4.821,4.821,0,0,0,9.3,7.527a3.971,3.971,0,0,0,3.324-1.695Z" transform="translate(-0.281 -2.25)" fill="#fff"/></svg>